{"title":"Narnia 3, De Reis van het Drakenschip 2010 DVDrip Dutch Klam","uid":6486766,"size":1682276469,"categoryP":"video","categoryS":"movies","magnet":"?xt=urn:btih:512eea1ca392f1b65fde5071197cd9961ae03b61&amp;dn=Narnia+3%2C+De+Reis+van+het+Drakenschip+2010+DVDrip+Dutch+Klam&amp;tr=udp%3A%2F%2Ftracker.openbittorrent.com%3A80&amp;tr=udp%3A%2F%2Fopen.demonii.com%3A1337&amp;tr=udp%3A%2F%2Ftracker.coppersurfer.tk%3A6969&amp;tr=udp%3A%2F%2Fexodus.desync.com%3A6969","seeders":2,"leechers":0,"uploader":"Klambake","files":-1,"time":1308737913,"description":"Met bekende Nederlands gesproken stemmen,\n\nEdmund en Lucy moeten heel de zomer bij hun vervelende neefje Eustace verblijven, wat ze niet leuk vinden. Terwijl ze op een dag, samen met Eustace in een kamer zitten, komt een schilderij met het schip de 'Dawn Treader' erop tot leven en voor ze het weten bevinden ze zich op het magische schip. Daar ontmoeten ze hun vriend, koning Caspian. Samen gaan ze op zoek naar de zeven edelen. De zoektocht leidt hen naar verschillende mysterieuze eilanden...\n\n------------------ Dutch Friends ------------------\n\nVrienden van mij vind je hier: http://www.Film-Test.nl \n                    \n------ They got my dutchs subs ---- and more ------\n\nGeneral:\n\nComplete name                    : Narnia 3\\De Reis van het Drakenschip.avi\nFormat                           : AVI\nFormat/Info                      : Audio Video Interleave\nFile size                        : 1.57 GiB\nDuration                         : 1h 48mn\nOverall bit rate                 : 2 074 Kbps\n\nVideo:\n\nFormat                           : MPEG-4 Visual\nFormat profile                   : Simple@L3\nFormat settings, BVOP            : No\nFormat settings, QPel            : No\nFormat settings, GMC             : No warppoints\nFormat settings, Matrix          : Default (H.263)\nCodec ID                         : XVID\nCodec ID/Hint                    : XviD\nDuration                         : 1h 48mn\nBit rate                         : 1 680 Kbps\nWidth                            : 720 pixels\nHeight                           : 304 pixels\nDisplay aspect ratio             : 2.35:1\nFrame rate                       : 25.000 fps\nColor space                      : YUV\nChroma subsampling               : 4:2:0\nBit depth                        : 8 bits\nScan type                        : Progressive\nBits/(Pixel*Frame)               : 0.307\nStream size                      : 1.27 GiB (81%)\nWriting library                  : XviD 1.1.2 (UTC 2006-11-01)\n\nAudio:\n\nFormat                           : AC-3\nFormat/Info                      : Audio Coding 3\nMode extension                   : CM (complete main)\nCodec ID                         : 2000\nDuration                         : 1h 48mn\nBit rate mode                    : Constant\nBit rate                         : 384 Kbps\nChannel(s)                       : 6 channels\nChannel positions                : Front: L C R, Side: L R, LFE\nSampling rate                    : 48.0 KHz\nBit depth                        : 16 bits\nStream size                      : 297 MiB (19%)\nAlignment                        : Aligned on interleaves\nInterleave, duration             : 32 ms (0.80 video frame)\nInterleave, preload duration     : 160 ms\n\n\n","torrent":{"xt":"urn:btih:512eea1ca392f1b65fde5071197cd9961ae03b61","amp;dn":"Narnia+3%2C+De+Reis+van+het+Drakenschip+2010+DVDrip+Dutch+Klam","amp;tr":["udp%3A%2F%2Ftracker.openbittorrent.com%3A80","udp%3A%2F%2Fopen.demonii.com%3A1337","udp%3A%2F%2Ftracker.coppersurfer.tk%3A6969","udp%3A%2F%2Fexodus.desync.com%3A6969"],"infoHash":"512eea1ca392f1b65fde5071197cd9961ae03b61","infoHashBuffer":{"type":"Buffer","data":[81,46,234,28,163,146,241,182,95,222,80,113,25,124,217,150,26,224,59,97]},"announce":[],"urlList":[]}}